<?xml version="1.0" encoding="utf-8"?>
<!-- Generator: Adobe Illustrator 23.0.2, SVG Export Plug-In . SVG Version: 6.00 Build 0)  -->
<svg version="1.1" id="图层_1" xmlns="http://www.w3.org/2000/svg" xmlns:xlink="http://www.w3.org/1999/xlink" x="0px" y="0px"
	 viewBox="0 0 204.5 204.5" style="enable-background:new 0 0 204.5 204.5;" xml:space="preserve">
<style type="text/css">
	.st0{fill:#1709D3;}
	.st1{fill:#1709D3;stroke:#0788DE;stroke-width:0.185;}
</style>
<def></def>
<g id="shape_t3Zg6LY53Z" transform="translate(171.66175586978,177.73913043478) rotate(0,79.751844298233,90.227401555653) scale(1,1)">
	<g>
		<g>
			<path class="st0" d="M-76.3,15c-35.7,0-66.6-26.7-71.7-62.1c-0.6-4.8,2.6-9.4,7.4-10c4.8-0.6,9.4,2.6,10,7.4
				c3.9,26.7,27.1,46.9,54.3,46.9c28.4,0,52.4-22.1,54.6-50.4c0.3-4.8,4.7-8.6,9.5-8.1c4.8,0.3,8.6,4.7,8.1,9.5
				C-7-14.2-38.7,15-76.3,15z"/>
		</g>
		<g>
			<path class="st0" d="M-126.1-88.2c-1.9,0-3.9-0.6-5.5-1.9c-3.9-3.1-4.5-8.6-1.5-12.4c13.9-17.5,34.6-27.3,56.7-27.3
				c21.7,0,42.2,9.7,55.9,26.3c3.1,3.7,2.6,9.4-1.1,12.4C-25.3-88-31-88.5-34-92.2c-10.5-12.6-25.9-19.9-42.3-19.9
				c-16.8,0-32.5,7.6-42.8,20.7C-120.9-89.3-123.5-88.2-126.1-88.2z"/>
		</g>
		<g>
			<g>
				<circle class="st0" cx="-136.6" cy="-73.3" r="9.7"/>
			</g>
		</g>
		<g>
			<path class="st0" d="M-10.2-106.5c-1.1,0-2.4-0.5-3.2-1.6c-10.2-13.7-24.9-23.8-41.2-28.4c-2.1-0.6-3.2-2.7-2.7-4.8
				c0.6-2.1,2.7-3.2,4.8-2.7c17.9,5.2,34.1,16.2,45.4,31.3c1.3,1.8,1,4.2-0.8,5.5C-8.6-106.8-9.4-106.5-10.2-106.5z"/>
		</g>
		<g>
			<path class="st0" d="M5.4-113.7c-1.9,0-3.9-1-5-2.7c-12-19.1-31.3-32.6-53.3-37.2c-3.2-0.6-5.3-3.7-4.7-6.9s3.7-5.3,6.9-4.7
				c25.2,5.2,47.5,20.7,61.1,42.5c1.8,2.7,0.8,6.5-1.9,8.1C7.5-113.9,6.6-113.7,5.4-113.7z"/>
		</g>
	</g>
</g>
<g id="shape_TkCzO9nAfD" transform="translate(99.06330327411997,-148.38948416339997) rotate(0,167.08368170518,445.916984146314) scale(1,1)">
	<g>
		<g transform="translate(111.26341500000001, 0)">
			<path class="st1" d="M-127.9,265.6l-17.7-24.9c0.4-1,0.9-2.1,1.6-3.1c0.7-1,1.5-2,2.5-2.8c1-0.9,2.2-1.6,3.5-2.1
				c1.3-0.6,2.8-0.8,4.4-0.8l0,0c2.2,0,4,0.5,5.7,1.6c1.6,1.1,3.3,2.9,5,5.5l0,0l8.7,13.2l12.8-18.9c0.6-0.3,1.4-0.6,2.5-0.8
				c1.1-0.3,2.1-0.4,3.2-0.4l0,0c3.4,0,6.1,0.8,8,2.4c1.9,1.6,2.9,3.6,2.9,6l0,0c0,2.1-0.5,3.9-1.6,5.6c-1.1,1.6-2.5,3.6-4.4,5.9
				l0,0l-11.4,14l18.1,25.9c-0.6,2.7-1.9,4.9-3.8,6.5c-2,1.6-4.6,2.4-8,2.4l0,0c-2.2,0-4-0.5-5.6-1.6s-3.1-2.9-4.8-5.5l0,0l-9-14.2
				l-14,21.1c-0.6,0.1-1.2,0.1-1.7,0.2c-0.5,0-1,0.1-1.6,0.1l0,0c-4.2,0-7.3-0.9-9.3-2.6s-3-3.8-3-6.3l0,0c0-2.2,0.5-4,1.4-5.6
				s2.2-3.5,3.9-5.6l0,0L-127.9,265.6z"/>
		</g>
	</g>
</g>
</svg>
